# xmcd
#
# Track frame offsets: 
#        150
#        17897
#        34162
#        52192
#        68542
#        81685
#        99365
#        116782
#        135825
#        152755
#        170647
#        185007
#
# Disc length: 2603 seconds
#
# Revision: 0
# Processed by: cddbd v1.5.2PL0 Copyright (c) Steve Scherf et al.
# Submitted via: ExactAudioCopy v0.95b4
#
DISCID=a40a290c
DTITLE=Jordan Knight - Love Songs
DYEAR=2007
DGENRE=Pop
TTITLE0=Waiting for a Girl Like You
TTITLE1=Say Goodbye
TTITLE2=Tender Love
TTITLE3=I Wish
TTITLE4=She's Got a Way
TTITLE5=Where Is Your Heart Tonight
TTITLE6=One More Night
TTITLE7=Have You
TTITLE8=Careless Whisper
TTITLE9=Drive
TTITLE10=No More Tears
TTITLE11=Little Drummer Boy [*]
EXTD=
EXTT0=
EXTT1=
EXTT2=
EXTT3=
EXTT4=
EXTT5=
EXTT6=
EXTT7=
EXTT8=
EXTT9=
EXTT10=
EXTT11=
PLAYORDER=
